<svg width="25" height="26" viewBox="0 0 25 26" fill="none" xmlns="http://www.w3.org/2000/svg">
<path d="M23.1468 2.53437C24.3336 3.73623 25 5.36374 25 7.06042C25 8.7571 24.3336 10.3846 23.1468 11.5865L20.8969 13.8421C19.2498 15.5041 16.9264 16.0235 14.8088 15.4596L18.6616 11.5865L19.7792 10.4438L20.8969 9.31603C22.1321 8.06951 22.1321 6.05134 20.8969 4.80482C20.6053 4.5051 20.2575 4.26702 19.8737 4.1045C19.4899 3.94198 19.0778 3.85827 18.6616 3.85827C18.2454 3.85827 17.8334 3.94198 17.4496 4.1045C17.0658 4.26702 16.718 4.5051 16.4264 4.80482L15.2941 5.93262L10.3236 10.9484C9.77947 8.81149 10.2942 6.46684 11.9412 4.80482L14.1764 2.53437C15.3674 1.33676 16.9803 0.664307 18.6616 0.664307C20.343 0.664307 21.9558 1.33676 23.1468 2.53437ZM9.69124 18.3681L17.544 10.4438C18.1616 9.82058 18.1616 8.81149 17.544 8.18823C16.897 7.55013 15.8823 7.60949 15.2941 8.18823L7.456 16.1125C6.83836 16.7358 6.83836 17.7449 7.456 18.3681C8.10304 19.0062 9.11772 18.9469 9.69124 18.3681ZM8.57362 21.7664L14.6617 15.608C15.2205 17.7449 14.7058 20.0895 13.0588 21.7515L10.8236 24.022C9.63256 25.2196 8.01974 25.8921 6.33838 25.8921C4.65701 25.8921 3.04419 25.2196 1.85318 24.022C0.666384 22.8201 0 21.1926 0 19.4959C0 17.7993 0.666384 16.1717 1.85318 14.9699L4.10313 12.7143C5.75015 11.0523 8.07363 10.5329 10.1912 11.0819L4.10313 17.2403C2.85316 18.4869 2.85316 20.505 4.10313 21.7664C5.3384 23.0129 7.33835 23.0129 8.57362 21.7664Z" fill="white"/>
</svg>
