<svg width="35" height="34" viewBox="0 0 35 34" fill="none" xmlns="http://www.w3.org/2000/svg">
<path d="M6.70226 15.5448H8.93806V8.17982C8.93806 5.85524 10.8221 3.97125 13.1466 3.97125H21.3007C23.6253 3.97125 25.5093 5.85524 25.5093 8.17982V15.5448H27.7451C28.3271 15.5448 28.7972 16.015 28.7972 16.597V29.2227C28.7972 29.8046 28.3271 30.2748 27.7451 30.2748H6.70226C6.12029 30.2748 5.65012 29.8046 5.65012 29.2227V16.597C5.65012 16.015 6.12029 15.5448 6.70226 15.5448ZM16.3031 23.3372V25.0799C16.3031 25.2245 16.4214 25.3429 16.5661 25.3429H17.8813C18.0259 25.3429 18.1443 25.2245 18.1443 25.0799V23.3372C18.4157 23.1424 18.6183 22.8664 18.7229 22.5491C18.8275 22.2318 18.8287 21.8895 18.7263 21.5714C18.624 21.2533 18.4234 20.976 18.1533 20.7792C17.8833 20.5824 17.5578 20.4764 17.2237 20.4764C16.8896 20.4764 16.5641 20.5824 16.294 20.7792C16.024 20.976 15.8234 21.2533 15.721 21.5714C15.6187 21.8895 15.6199 22.2318 15.7245 22.5491C15.8291 22.8664 16.0316 23.1424 16.3031 23.3372ZM11.3054 15.5448H23.142V8.17982C23.142 7.16385 22.3167 6.33857 21.3007 6.33857H13.1466C12.1307 6.33857 11.3054 7.16385 11.3054 8.17982V15.5448Z" fill="white"/>
</svg>
